<svg width="151" height="152" viewBox="0 0 151 152" fill="none" xmlns="http://www.w3.org/2000/svg">
<path d="M51.643 76.2143L41.8701 66.4458L45.3369 78.0916L38.5886 80.1005L30.8113 53.9753L38.2476 51.7615L48.6411 62.2369L44.9304 49.7721L51.4659 47.8266L59.2431 73.9519L51.643 76.2143ZM73.8445 65.3792L77.7101 64.2285L72.2441 45.8671L68.3785 47.0178L73.8445 65.3792ZM77.0084 69.3587C75.4251 69.8301 74.044 70.1223 72.8652 70.2355C71.6896 70.3596 70.6786 70.3574 69.832 70.2291C68.9964 70.0974 68.2973 69.8657 67.7349 69.5338C67.1835 69.1987 66.7309 68.8164 66.3771 68.3868C66.0201 67.9462 65.7395 67.4829 65.5354 66.9969C65.3422 66.5076 65.1806 66.0445 65.0505 65.6077L60.8767 51.5869C60.7467 51.1501 60.6303 50.6795 60.5277 50.1751C60.4328 49.6566 60.4159 49.1207 60.4771 48.5676C60.5383 48.0144 60.7098 47.4523 60.9914 46.881C61.2808 46.2956 61.7408 45.7248 62.3717 45.1685C63.0102 44.598 63.85 44.0449 64.8912 43.5091C65.9432 42.97 67.2663 42.4632 68.8606 41.9886C70.4658 41.5108 71.8616 41.2082 73.0481 41.0808C74.2455 40.9502 75.273 40.9475 76.1305 41.0726C76.9847 41.1868 77.6985 41.4082 78.2718 41.7368C78.8418 42.0545 79.3092 42.4265 79.6739 42.8529C80.0385 43.2793 80.3229 43.7355 80.5271 44.2215C80.728 44.6967 80.8934 45.1526 81.0234 45.5894L85.1973 59.6102C85.3273 60.047 85.4398 60.5247 85.5347 61.0433C85.6297 61.5618 85.6427 62.1048 85.5738 62.6721C85.5017 63.2285 85.3155 63.801 85.0153 64.3896C84.715 64.9783 84.2402 65.5595 83.5908 66.1332C82.9413 66.7069 82.0797 67.2666 81.0058 67.8121C79.9461 68.3653 78.6136 68.8809 77.0084 69.3587ZM104.486 32.043L105.642 35.9249L99.9745 37.612L106.596 59.8553L98.4556 62.2787L91.8339 40.0354L86.1994 41.7127L85.0438 37.8308L104.486 32.043ZM33.1482 89.7975L44.1224 86.5306C45.6512 86.0755 46.9635 85.7918 48.0594 85.6796C49.1662 85.564 50.1068 85.5693 50.8814 85.6954C51.6668 85.8182 52.3048 86.0443 52.7951 86.3738C53.2932 86.6892 53.7011 87.0611 54.0188 87.4895C54.3333 87.9071 54.5746 88.3583 54.7427 88.8432C54.9185 89.3139 55.0714 89.7676 55.2015 90.2044L57.0592 96.445C57.1892 96.8818 57.311 97.3507 57.4245 97.8519C57.5457 98.3388 57.5889 98.8431 57.5539 99.3646C57.519 99.8862 57.3809 100.421 57.1397 100.968C56.9093 101.512 56.499 102.05 55.9086 102.583C55.3291 103.112 54.5444 103.631 53.5546 104.139C52.5758 104.645 51.322 105.125 49.7932 105.58L46.9596 106.423L49.066 113.499L40.9254 115.923L33.1482 89.7975ZM45.8966 102.853L49.7622 101.702L46.31 90.1053L42.4444 91.2561L45.8966 102.853ZM73.144 99.324L74.3887 105.961L65.9533 108.472L62.3692 81.0987L76.4228 76.9151L88.3931 101.792L79.925 104.313L77.3699 98.066L73.144 99.324ZM72.697 96.2653L76.0712 95.2609L70.5206 82.8446L72.697 96.2653ZM94.2273 71.6149L102.004 97.7401L93.8639 100.164L86.0867 74.0383L94.2273 71.6149ZM115.099 89.6161L118.965 88.4653L113.499 70.1039L109.633 71.2547L115.099 89.6161ZM126.345 83.4868C126.475 83.9235 126.596 84.3925 126.71 84.8936C126.831 85.3806 126.876 85.8903 126.844 86.4228C126.823 86.952 126.692 87.4903 126.451 88.0376C126.207 88.574 125.796 89.1122 125.22 89.6523C124.64 90.1814 123.856 90.7003 122.866 91.2089C121.887 91.7143 120.633 92.1945 119.105 92.6496L108.114 95.9214L100.337 69.7961L111.327 66.5243C112.856 66.0692 114.168 65.7855 115.264 65.6733C116.371 65.5578 117.312 65.563 118.086 65.6891C118.861 65.8151 119.499 66.0413 120 66.3676C120.498 66.6829 120.901 67.0564 121.207 67.4881C121.522 67.9057 121.763 68.3569 121.931 68.8418C122.107 69.3125 122.26 69.7662 122.39 70.203L126.345 83.4868Z" fill="#ED3A3A"/>
<path d="M145.357 52.4284C141.356 50.0486 138.848 44.3712 139.785 39.8118C140.719 35.2516 137.744 30.8108 133.17 29.9439C128.597 29.0757 124.298 24.5978 123.619 19.9924C122.937 15.387 118.622 12.2315 114.028 12.9804C109.435 13.7294 103.862 10.9922 101.649 6.89638C99.4374 2.79987 94.3032 1.31092 90.2417 3.58721C86.1788 5.86351 80.0076 5.19619 76.5263 2.10443C73.0464 -0.987325 67.7105 -0.630002 64.673 2.89726C61.6347 6.42521 55.6082 7.90799 51.2806 6.19339C46.9509 4.47949 42.0622 6.6385 40.4128 10.9929C38.7647 15.3466 33.6086 18.8018 28.9538 18.6715C24.299 18.5419 20.4426 22.244 20.3822 26.8981C20.3232 31.5536 16.6595 36.5636 12.2434 38.032C7.82588 39.5018 5.46796 44.2992 7.00287 48.6947C8.53914 53.0896 6.80878 59.0509 3.1608 61.941C-0.48923 64.8325 -1.06259 70.1477 1.88308 73.7525C4.82876 77.3573 5.24506 83.5504 2.80485 87.5159C0.363952 91.48 1.64235 96.6711 5.64354 99.0496C9.64609 101.43 12.1549 107.107 11.2173 111.668C10.2812 116.228 13.2563 120.668 17.8281 121.537C22.4027 122.404 26.7015 126.882 27.3819 131.488C28.0609 136.093 32.3768 139.248 36.9713 138.5C41.5643 137.751 47.1368 140.488 49.3513 144.583C51.5659 148.68 56.6987 150.169 60.7603 147.892C64.8204 145.617 70.993 146.284 74.4729 149.376C77.9529 152.467 83.2873 152.109 86.3262 148.583C89.3631 145.055 95.3923 143.571 99.7214 145.285C104.051 147 108.94 144.841 110.588 140.487C112.236 136.132 117.391 132.677 122.046 132.808C126.701 132.938 130.559 129.237 130.618 124.581C130.677 119.926 134.342 114.916 138.758 113.446C143.175 111.977 145.535 107.18 144 102.785C142.462 98.3912 144.191 92.4278 147.84 89.537C151.489 86.6462 152.062 81.3324 149.117 77.7276C146.171 74.1228 145.755 67.929 148.196 63.9642C150.635 59.9994 149.357 54.8083 145.357 52.4284ZM92.2279 140.755C56.3208 149.994 19.7231 128.375 10.4842 92.4683C1.24525 56.5613 22.8643 19.9629 58.7713 10.7247C94.6784 1.48649 131.277 23.1048 140.515 59.0125C149.754 94.9188 128.135 131.516 92.2279 140.755Z" fill="#ED3A3A"/>
<path d="M59.6395 14.0971C25.5952 22.8566 5.0982 57.5552 13.857 91.5994C22.6159 125.644 57.3166 146.141 91.3595 137.382C125.404 128.623 145.902 93.9237 137.142 59.8795C128.382 25.8352 93.6838 5.33826 59.6395 14.0971ZM90.7471 135.001C58.0182 143.421 24.659 123.716 16.2369 90.987C7.81686 58.2575 27.5224 24.8983 60.2513 16.4776C92.9815 8.05692 126.339 27.7624 134.761 60.4912C143.184 93.2201 123.476 126.58 90.7471 135.001Z" fill="#ED3A3A"/>
</svg>
