<svg width="151" height="152" viewBox="0 0 151 152" fill="none" xmlns="http://www.w3.org/2000/svg">
<path d="M26.9729 75.4329L38.2607 72.0726C39.8331 71.6045 41.1829 71.3127 42.3101 71.1973C43.4485 71.0785 44.4161 71.0839 45.2128 71.2135C46.0207 71.3398 46.6768 71.5725 47.1812 71.9114C47.6935 72.2357 48.113 72.6183 48.4398 73.059C48.7633 73.4884 49.0115 73.9525 49.1844 74.4513C49.3652 74.9354 49.5225 75.4021 49.6563 75.8514L51.5671 82.2703C51.7008 82.7196 51.8261 83.2019 51.9429 83.7174C52.0675 84.2182 52.1119 84.7369 52.0759 85.2734C52.04 85.8098 51.898 86.3595 51.6498 86.9225C51.4129 87.4821 50.9908 88.0357 50.3836 88.5833C49.7875 89.1275 48.9804 89.6612 47.9624 90.1844C46.9556 90.7042 45.6659 91.1981 44.0935 91.6662L41.1789 92.5339L43.3455 99.812L34.9723 102.305L26.9729 75.4329ZM40.0856 88.8611L44.0616 87.6775L40.5107 75.7495L36.5347 76.9331L40.0856 88.8611ZM68.1114 85.2316L69.3917 92.0583L60.7153 94.6412L57.0288 66.4856L71.4839 62.1824L83.7963 87.7702L75.0861 90.3631L72.4581 83.9377L68.1114 85.2316ZM67.6517 82.0855L71.1223 81.0524L65.4131 68.2813L67.6517 82.0855ZM89.7971 56.7307L97.7965 83.6024L89.4233 86.0951L81.4239 59.2234L89.7971 56.7307ZM111.265 75.2463L115.241 74.0626L109.619 55.1766L105.643 56.3603L111.265 75.2463ZM122.832 68.9418C122.966 69.3911 123.091 69.8735 123.208 70.3889C123.332 70.8898 123.378 71.4141 123.346 71.9618C123.324 72.5061 123.19 73.0598 122.942 73.6227C122.69 74.1744 122.268 74.728 121.675 75.2835C121.079 75.8277 120.272 76.3614 119.254 76.8846C118.247 77.4044 116.958 77.8984 115.385 78.3664L104.081 81.7317L96.0812 54.86L107.386 51.4947C108.958 51.0266 110.308 50.7349 111.435 50.6194C112.574 50.5006 113.541 50.506 114.338 50.6357C115.135 50.7653 115.791 50.9979 116.306 51.3335C116.819 51.6579 117.233 52.0421 117.548 52.4861C117.872 52.9156 118.12 53.3797 118.293 53.8784C118.474 54.3626 118.631 54.8293 118.765 55.2785L122.832 68.9418Z" fill="#12C93D"/>
<path d="M145.357 52.4284C141.356 50.0486 138.848 44.3712 139.785 39.8118C140.719 35.2516 137.744 30.8108 133.17 29.9439C128.597 29.0757 124.298 24.5978 123.619 19.9924C122.937 15.387 118.622 12.2315 114.028 12.9804C109.435 13.7294 103.862 10.9922 101.649 6.89638C99.4374 2.79987 94.3032 1.31092 90.2417 3.58721C86.1788 5.86351 80.0076 5.19619 76.5263 2.10443C73.0464 -0.987325 67.7105 -0.630002 64.673 2.89726C61.6347 6.42521 55.6082 7.90799 51.2806 6.19339C46.9509 4.47949 42.0622 6.6385 40.4128 10.9929C38.7647 15.3466 33.6086 18.8018 28.9538 18.6715C24.299 18.5419 20.4426 22.244 20.3822 26.8981C20.3232 31.5536 16.6595 36.5636 12.2434 38.032C7.82588 39.5018 5.46796 44.2992 7.00287 48.6947C8.53914 53.0896 6.80878 59.0509 3.1608 61.941C-0.48923 64.8325 -1.06259 70.1477 1.88308 73.7525C4.82876 77.3573 5.24506 83.5504 2.80485 87.5159C0.363952 91.48 1.64235 96.6711 5.64354 99.0496C9.64609 101.43 12.1549 107.107 11.2173 111.668C10.2812 116.228 13.2563 120.668 17.8281 121.537C22.4027 122.404 26.7015 126.882 27.3819 131.488C28.0609 136.093 32.3768 139.248 36.9713 138.5C41.5643 137.751 47.1368 140.488 49.3513 144.583C51.5659 148.68 56.6987 150.169 60.7603 147.892C64.8204 145.617 70.993 146.284 74.4729 149.376C77.9529 152.467 83.2873 152.109 86.3262 148.583C89.3631 145.055 95.3923 143.571 99.7214 145.285C104.051 147 108.94 144.841 110.588 140.487C112.236 136.132 117.391 132.677 122.046 132.808C126.701 132.938 130.559 129.237 130.618 124.581C130.677 119.926 134.342 114.916 138.758 113.446C143.175 111.977 145.535 107.18 144 102.785C142.462 98.3912 144.191 92.4278 147.84 89.537C151.489 86.6462 152.062 81.3324 149.117 77.7276C146.171 74.1228 145.755 67.929 148.196 63.9642C150.635 59.9994 149.357 54.8083 145.357 52.4284ZM92.2279 140.755C56.3208 149.994 19.7231 128.375 10.4842 92.4683C1.24525 56.5613 22.8643 19.9629 58.7713 10.7247C94.6784 1.48649 131.277 23.1048 140.515 59.0125C149.754 94.9188 128.135 131.516 92.2279 140.755Z" fill="#12C93D"/>
<path d="M59.6393 14.0971C25.595 22.8566 5.09801 57.5552 13.8569 91.5994C22.6157 125.644 57.3164 146.141 91.3593 137.382C125.404 128.623 145.902 93.9237 137.142 59.8795C128.382 25.8352 93.6836 5.33826 59.6393 14.0971ZM90.7469 135.001C58.018 143.421 24.6588 123.716 16.2367 90.987C7.81668 58.2575 27.5222 24.8983 60.2511 16.4776C92.9813 8.05692 126.339 27.7624 134.761 60.4912C143.183 93.2201 123.476 126.58 90.7469 135.001Z" fill="#12C93D"/>
<path d="M30.2931 60.3327L31.9727 61.0054L33.1977 57.9468L31.5181 57.2742L30.2931 60.3327Z" fill="#12C93D"/>
<path d="M30.0222 50.8504L37.7983 55.4757L39.0417 53.3866L31.2485 48.7517L32.3664 46.8719L30.4941 45.7581L26.9922 51.6473L28.8796 52.7701L30.0222 50.8504Z" fill="#12C93D"/>
<path d="M43.1602 47.9321L39.6679 44.7073L41.2001 43.0476L44.6951 46.2717L46.3425 44.4858L38.0802 36.8579L36.4315 38.6431L39.5863 41.5573L38.0418 43.2307L34.8856 40.318L33.2368 42.1039L41.5005 49.7311L43.1602 47.9321Z" fill="#12C93D"/>
<path d="M49.903 41.7013L49.2507 40.021L51.6978 38.3516L52.9961 39.5909L54.9596 38.2515L46.2941 30.5496L44.2578 31.9391L47.9387 43.0407L49.903 41.7013ZM46.7975 33.5391L50.3885 37.0438L48.5937 38.268L46.7666 33.5597L46.7975 33.5391Z" fill="#12C93D"/>
<path d="M59.1243 36.4758L56.6059 29.8431L56.6409 29.83L61.8341 35.447L64.2331 34.5356L60.2347 24.0066L58.0798 24.8241L60.5605 31.356L60.5186 31.3718L55.4029 25.8398L52.9209 26.7835L56.9193 37.3132L59.1243 36.4758Z" fill="#12C93D"/>
<path d="M68.7365 27.9511L68.7708 27.9463L71.7693 33.2718L74.3192 32.9254L70.9895 27.4298L72.6252 21.8066L70.1562 22.1427L68.7145 27.5272L68.6789 27.532L67.9862 22.4376L65.5508 22.7696L67.0658 33.9117L69.5026 33.5804L68.7365 27.9511Z" fill="#12C93D"/>
<path d="M81.2353 33.3525L81.6427 28.3905L84.6583 22.3503L82.251 22.1528L80.5995 25.5813L79.4542 21.9237L76.8418 21.7097L79.2354 28.2108L78.8307 33.1557L81.2353 33.3525Z" fill="#12C93D"/>
<path d="M86.5792 33.1138C87.0133 34.1782 87.813 34.8894 88.9769 35.2454C90.1195 35.5945 91.1763 35.4683 92.1489 34.864C93.1214 34.2612 93.9382 32.8779 94.6001 30.7134C94.9245 29.6572 95.0987 28.7841 95.1282 28.0928C95.1576 27.4021 95.0596 26.7856 94.8332 26.2424C94.6069 25.6992 94.3189 25.25 93.9691 24.8954C93.6193 24.5401 93.1022 24.2583 92.4205 24.0498C91.594 23.7974 90.8492 23.783 90.1874 24.0072C89.5255 24.2322 88.9227 24.6471 88.3802 25.252C87.8363 25.8583 87.3356 26.9159 86.872 28.4261C86.2431 30.4863 86.145 32.0487 86.5792 33.1138ZM88.745 31.4788C88.78 31.0974 88.97 30.3416 89.317 29.21L89.5276 28.5214C89.8129 27.5921 90.1291 26.9467 90.4775 26.586C90.8259 26.2246 91.2477 26.1196 91.7422 26.2712C92.0796 26.3748 92.3286 26.5853 92.4884 26.9049C92.6488 27.2238 92.7065 27.5942 92.6626 28.0166C92.6187 28.4391 92.452 29.1208 92.164 30.0625C91.8423 31.1125 91.5734 31.8292 91.3547 32.2112C91.1393 32.5939 90.8828 32.8504 90.5927 32.9807C90.3019 33.1117 90.018 33.1351 89.7436 33.0507C89.4048 32.9478 89.1449 32.7551 88.9652 32.4739C88.7828 32.1913 88.7108 31.8601 88.745 31.4788Z" fill="#12C93D"/>
<path d="M96.3517 37.1597C96.5835 38.0095 97.2021 38.7269 98.2096 39.3119C99.1807 39.875 100.092 40.0553 100.941 39.8517C101.792 39.648 102.482 39.0897 103.013 38.1762L107.069 31.1923L104.941 29.9584L101.117 36.5452C100.882 36.9492 100.608 37.2208 100.296 37.3593C99.9838 37.4965 99.6773 37.4787 99.3755 37.3038C99.0539 37.1165 98.8748 36.8477 98.8385 36.4979C98.8035 36.1468 98.9174 35.7435 99.1828 35.2867L102.949 28.8008L100.832 27.571L96.8708 34.3917C96.2927 35.3875 96.1185 36.3107 96.3517 37.1597Z" fill="#12C93D"/>
<path d="M107.703 42.2781L108.866 40.8918L106.341 38.7746L105.179 40.1609L107.703 42.2781Z" fill="#12C93D"/>
<path d="M42.7476 110.698L41.5259 112.033L43.9576 114.258L45.1793 112.922L42.7476 110.698Z" fill="#12C93D"/>
<path d="M55.301 114.827L56.4929 113.002L50.7545 109.257L49.5543 111.097L51.4253 112.317L46.479 119.894L48.5132 121.223L53.4698 113.631L55.301 114.827Z" fill="#12C93D"/>
<path d="M62.7268 115.575L61.2145 119.594L59.0829 118.792L60.5959 114.772L58.3196 113.916L54.3589 124.441L56.6523 125.303L58.3265 120.854L60.4416 121.65L58.7661 126.099L61.0417 126.955L65.0024 116.431L62.7268 115.575Z" fill="#12C93D"/>
<path d="M65.499 128.107L67.8604 128.4L68.4804 126.706L71.4192 127.07L71.5762 128.858L73.9341 129.15L72.5172 117.643L70.0701 117.341L65.499 128.107ZM70.9199 120.22L71.3005 125.223L69.1449 124.956L70.8835 120.214L70.9199 120.22Z" fill="#12C93D"/>
<path d="M83.5999 124.145L83.5539 124.151L79.8956 117.565L77.2593 117.894L78.6502 129.071L80.9916 128.78L80.1151 121.739L80.1501 121.735L83.8673 128.422L86.4139 128.105L85.0237 116.928L82.7371 117.213L83.5999 124.145Z" fill="#12C93D"/>
<path d="M94.3028 113.671L91.9737 114.553L91.7762 120.123L91.7433 120.135L89.9237 115.328L87.6255 116.197L91.6034 126.715L93.9023 125.846L91.8928 120.532L91.9264 120.519L96.0428 125.035L98.4501 124.124L93.9722 119.517L94.3028 113.671Z" fill="#12C93D"/>
<path d="M102.224 108.576L100.215 109.918L101.054 113.63L97.8822 111.477L95.7026 112.932L101.619 116.537L104.376 120.663L106.381 119.322L103.617 115.182L102.224 108.576Z" fill="#12C93D"/>
<path d="M110.634 103.979C110.027 103.647 109.431 103.461 108.843 103.423C108.258 103.384 107.727 103.442 107.254 103.6C106.78 103.756 106.3 104.093 105.808 104.613C105.215 105.241 104.874 105.903 104.781 106.595C104.688 107.288 104.793 108.011 105.096 108.767C105.397 109.523 106.122 110.442 107.271 111.525C108.837 113.004 110.196 113.786 111.342 113.869C112.489 113.952 113.48 113.551 114.316 112.664C115.136 111.795 115.493 110.793 115.383 109.653C115.273 108.514 114.396 107.168 112.749 105.614C111.945 104.857 111.24 104.312 110.634 103.979ZM113.002 110.212C112.99 110.532 112.886 110.796 112.687 111.005C112.445 111.262 112.157 111.41 111.825 111.448C111.493 111.485 111.163 111.404 110.836 111.203C110.511 111.001 109.917 110.496 109.057 109.684L108.533 109.189C107.828 108.522 107.388 107.952 107.219 107.48C107.051 107.007 107.144 106.583 107.498 106.208C107.74 105.95 108.04 105.821 108.397 105.819C108.754 105.817 109.112 105.929 109.471 106.156C109.83 106.384 110.367 106.835 111.083 107.511C111.882 108.265 112.405 108.825 112.651 109.189C112.897 109.552 113.014 109.893 113.002 110.212Z" fill="#12C93D"/>
<path d="M113.617 93.6719L112.403 95.8089L119.024 99.5715C119.432 99.8033 119.705 100.074 119.847 100.386C119.987 100.698 119.972 101.004 119.8 101.307C119.615 101.631 119.348 101.811 118.999 101.851C118.648 101.89 118.243 101.779 117.784 101.519L111.264 97.8136L110.054 99.9425L116.911 103.839C117.913 104.409 118.839 104.574 119.685 104.334C120.531 104.095 121.242 103.468 121.819 102.456C122.375 101.48 122.545 100.569 122.333 99.7196C122.121 98.8719 121.557 98.1861 120.638 97.6641L113.617 93.6719Z" fill="#12C93D"/>
<path d="M120.437 93.7035L122.146 94.3022L123.236 91.1923L121.528 90.5936L120.437 93.7035Z" fill="#12C93D"/>
</svg>
