<svg width="28" height="28" viewBox="0 0 28 28" fill="none" xmlns="http://www.w3.org/2000/svg">
<path d="M27.4306 12.6156L15.3916 0.572337C14.6284 -0.191104 13.3882 -0.191104 12.6251 0.572337L0.58605 12.6156C-0.177121 13.3791 -0.177121 14.6197 0.58605 15.3831L12.6251 27.4264C13.3882 28.1898 14.6284 28.1898 15.3916 27.4264L27.4306 15.3831C28.1747 14.6197 28.1747 13.3791 27.4306 12.6156ZM15.01 23.8191C14.4567 24.3726 13.5409 24.3726 12.9876 23.8191L4.17296 15.0014C3.61966 14.4479 3.61966 13.5317 4.17296 12.9783L12.9876 4.16051C13.5409 3.60701 14.4567 3.60701 15.01 4.16051L23.8246 12.9783C24.3779 13.5317 24.3779 14.4479 23.8246 15.0014L15.01 23.8191Z" fill="#C5B582"/>
<path d="M20.1232 22.655L19.3027 23.4757C19.5889 23.1894 19.8751 22.9222 20.1232 22.655Z" fill="#958E62"/>
<path d="M27.4471 12.6347C25.7681 10.9552 22.6391 7.84416 22.6391 7.84416C22.9062 8.11136 23.1733 8.37856 23.4595 8.66485L22.6391 7.84416C16.114 1.5076 13.5383 3.5498 13.0804 4.04603C13.0422 4.06512 13.0041 4.10329 12.985 4.14146L4.1513 12.9783C3.598 13.5318 3.598 14.4479 4.1513 15.0014L12.985 23.8382C13.5383 24.3917 14.4541 24.3917 15.0074 23.8382L23.8411 15.0014C24.3562 14.4861 24.3944 13.7036 23.9746 13.131C24.5279 13.7226 26.226 16.3565 20.1206 22.6358L27.4089 15.345C28.153 14.6197 28.2293 13.4173 27.4471 12.6347ZM21.1891 14.7342L14.7212 21.2044C14.3205 21.6052 13.6528 21.6052 13.233 21.2044L6.76515 14.7342C6.36449 14.3334 6.36449 13.6654 6.76515 13.2455L13.233 6.77533C13.6337 6.37453 14.3015 6.37453 14.7212 6.77533L21.1891 13.2455C21.6088 13.6654 21.6088 14.3334 21.1891 14.7342Z" fill="#958E62"/>
<path d="M9.47852 7.61511L10.07 7.02344C9.86012 7.23338 9.66931 7.42425 9.47852 7.61511Z" fill="#C5B582"/>
<path d="M7.62658 18.4749C7.43579 18.2841 7.22592 18.0932 7.03513 17.8833L7.62658 18.4749C12.9497 23.6472 14.705 21.2042 14.705 21.2042L14.7241 21.1851C14.2662 21.605 13.6366 21.586 13.2359 21.1851L6.74894 14.6959C6.74894 14.6959 4.2877 12.94 9.47726 7.61499L4.13506 12.9591C3.58176 13.5126 3.54361 14.3905 4.11599 14.9631" fill="#C5B582"/>
<path d="M7.875 5.3246L8.69539 4.50391C8.39013 4.7902 8.12303 5.0574 7.875 5.3246Z" fill="#023756"/>
<path d="M18.5018 20.3454C18.311 20.5363 18.1202 20.7462 17.9104 20.9371L18.5018 20.3454C23.7677 15.0586 21.2302 13.2645 21.2302 13.2645L21.2111 13.2454C21.6308 13.7035 21.6117 14.3333 21.2111 14.7341L14.7241 21.2234C14.7241 21.2234 13.1024 23.4755 8.25627 19.0666L4.15423 14.9631C4.15423 14.9631 0.815362 12.5774 7.87469 5.32471L0.586396 12.6156C-0.157695 13.3599 -0.234002 14.5623 0.548247 15.3449C2.22722 17.0244 12.5873 27.3881 12.5873 27.3881C12.5873 27.3881 12.5873 27.3882 12.5873 27.3691L5.33714 20.1164C5.07003 19.8492 4.80291 19.582 4.51672 19.2957L5.33714 20.1164C11.6524 26.2621 14.2853 24.5252 14.8577 23.9718C14.8959 23.9336 14.934 23.8954 14.9722 23.8572C16.2123 22.6357 18.5018 20.3454 18.5018 20.3454Z" fill="#023756"/>
<path d="M5.33604 20.1356L4.51562 19.3149C4.80181 19.6012 5.06893 19.8684 5.33604 20.1356Z" fill="#0F666D"/>
<path d="M27.3729 15.4023L20.1228 22.655C19.8557 22.9222 19.5886 23.1894 19.3024 23.4757L20.1228 22.655C26.2282 16.3757 24.5492 13.7419 23.9959 13.1502C23.9578 13.112 23.9196 13.0548 23.8814 13.0166C22.9656 12.1005 21.4775 10.6308 20.7715 9.90557C20.8288 9.96283 20.9051 10.0392 20.9623 10.0964L20.3709 9.50475C15.0477 4.33244 13.2924 6.77546 13.2924 6.77546L13.2734 6.79455C13.7313 6.37466 14.3609 6.39374 14.7616 6.79455L21.2485 13.2838C21.2485 13.2838 23.4426 14.8679 19.2643 19.5631L14.9905 23.8384C14.9905 23.8384 12.6056 27.1784 5.35547 20.1166L12.6438 27.4075C13.3879 28.1518 14.5898 28.2281 15.3721 27.4456C17.0129 25.7851 27.392 15.4023 27.3729 15.4023Z" fill="#0F666D"/>
<path d="M20.3516 9.50464C20.3516 9.50464 20.5042 9.65733 20.7522 9.90545C20.6187 9.77185 20.4851 9.63824 20.3516 9.50464Z" fill="#0F666D"/>
</svg>
