<svg width="26" height="26" viewBox="0 0 26 26" fill="none" xmlns="http://www.w3.org/2000/svg">
<path opacity="0.75" d="M13 26.0046C13.4926 26.0046 13.9638 25.9832 14.4349 25.9189C9.33773 25.2976 5.39703 20.9484 5.39703 15.6994C5.39703 10.0006 10.0016 5.39431 15.6985 5.39431C20.9456 5.39431 25.2932 9.3364 25.9143 14.4354C25.9572 13.9641 26 13.4927 26 13C26 5.8228 20.1746 -0.00463867 13 -0.00463867C5.82537 -0.00463867 0 5.80137 0 13C0 20.1986 5.82537 26.0046 13 26.0046Z" fill="#0000FF"/>
<path opacity="0.75" d="M13 -0.00463867C12.5074 -0.00463867 12.0362 0.016786 11.5651 0.0810592C16.6623 0.702367 20.603 5.05152 20.603 10.3005C20.603 15.9994 15.9984 20.6056 10.3015 20.6056C5.05437 20.6056 0.706753 16.6635 0.0856659 11.5645C0.0428323 12.0359 0 12.5072 0 13C0 20.1771 5.82537 26.0046 13 26.0046C20.1746 26.0046 26 20.1771 26 13C26 5.8228 20.196 -0.00463867 13 -0.00463867Z" fill="#8CC63F"/>
<path opacity="0.75" d="M26 13C26 12.5072 25.9786 12.0359 25.9143 11.5645C25.2932 16.6635 20.9456 20.6056 15.6985 20.6056C10.0016 20.6056 5.39703 15.9994 5.39703 10.3005C5.39703 5.05152 9.33773 0.702367 14.4349 0.0810592C13.9638 0.0382104 13.4926 -0.00463867 13 -0.00463867C5.82537 -0.00463867 0 5.8228 0 13C0 20.1771 5.82537 26.0046 13 26.0046C20.1746 26.0046 26 20.1771 26 13Z" fill="#C1272D"/>
<path opacity="0.75" d="M0 13C0 13.4927 0.0214155 13.9641 0.0856659 14.4354C0.706753 9.3364 5.05437 5.39431 10.3015 5.39431C15.9984 5.39431 20.603 10.0006 20.603 15.6994C20.603 20.9484 16.6623 25.2976 11.5651 25.9189C12.0362 25.9617 12.5074 26.0046 13 26.0046C20.1746 26.0046 26 20.1771 26 13C26 5.8228 20.1746 -0.00463867 13 -0.00463867C5.82537 -0.00463867 0 5.80137 0 13Z" fill="#FFFF00"/>
</svg>
