<svg width="19" height="28" viewBox="0 0 19 28" fill="none" xmlns="http://www.w3.org/2000/svg">
<path d="M0.150391 9.18042C0.150391 14.3765 4.35349 18.5994 9.56607 18.5994V9.18042H0.150391Z" fill="#2196F3"/>
<path d="M0.150391 18.5811C0.150391 23.7771 4.35349 28.0001 9.56607 28.0001V18.5811H0.150391Z" fill="#FFC107"/>
<path d="M9.58398 9.18042C14.7782 9.18042 18.9997 13.385 18.9997 18.5994H9.58398V9.18042Z" fill="#FFC107"/>
<path d="M18.9997 18.5811C18.9997 23.7771 14.7966 28.0001 9.58398 28.0001V18.5811H18.9997Z" fill="#F44336"/>
<path d="M18.9997 9.41902C18.9997 4.22295 14.7966 0 9.58398 0V9.41902H18.9997Z" fill="#FFC107"/>
<path d="M0.150391 9.41902C0.150391 4.22295 4.35349 0 9.56607 0V9.41902H0.150391Z" fill="#F44336"/>
</svg>
