<svg width="20" height="20" viewBox="0 0 20 20" fill="none" xmlns="http://www.w3.org/2000/svg">
<path d="M5.58398 7.71655L10.0006 10.2749L14.384 7.73322" stroke="#ED3A3A" stroke-width="1.5" stroke-linecap="round" stroke-linejoin="round"/>
<path d="M10.001 14.8083V10.2666" stroke="#ED3A3A" stroke-width="1.5" stroke-linecap="round" stroke-linejoin="round"/>
<path d="M8.96688 5.24163L6.3002 6.72496C5.7002 7.05829 5.2002 7.89996 5.2002 8.59163V11.4166C5.2002 12.1083 5.69187 12.95 6.3002 13.2833L8.96688 14.7666C9.53354 15.0833 10.4669 15.0833 11.0419 14.7666L13.7085 13.2833C14.3085 12.95 14.8085 12.1083 14.8085 11.4166V8.5833C14.8085 7.89163 14.3169 7.04996 13.7085 6.71663L11.0419 5.23329C10.4669 4.91663 9.53354 4.91663 8.96688 5.24163Z" stroke="#ED3A3A" stroke-width="1.5" stroke-linecap="round" stroke-linejoin="round"/>
<path d="M18.3333 12.5C18.3333 15.725 15.725 18.3333 12.5 18.3333L13.375 16.875" stroke="#ED3A3A" stroke-width="1.5" stroke-linecap="round" stroke-linejoin="round"/>
<path d="M1.66699 7.50008C1.66699 4.27508 4.27533 1.66675 7.50033 1.66675L6.62534 3.12508" stroke="#ED3A3A" stroke-width="1.5" stroke-linecap="round" stroke-linejoin="round"/>
</svg>
