<svg width="33" height="32" viewBox="0 0 33 32" fill="none" xmlns="http://www.w3.org/2000/svg">
<path d="M23.3875 1.12554C23.3871 1.12644 23.3858 1.12647 23.3853 1.1256C23.3846 1.12446 23.3829 1.12496 23.3829 1.12628L23.3831 1.13308C23.3831 1.13358 23.383 1.13407 23.3828 1.13452L19.5818 8.61671C17.2062 13.2924 17.3539 18.8519 19.9741 23.395L24.1667 30.665C24.167 30.6654 24.1671 30.6659 24.1671 30.6664L24.1673 30.6732C24.1673 30.6745 24.1691 30.6749 24.1697 30.6738C24.1702 30.6729 24.1714 30.6728 24.1719 30.6737C24.1726 30.6749 24.1744 30.6744 24.1743 30.673L24.1741 30.6662C24.1741 30.6657 24.1742 30.6652 24.1745 30.6648L27.9755 23.1826C30.3509 18.5069 30.2034 12.9473 27.5832 8.40429L23.3905 1.13432C23.3903 1.13388 23.3901 1.13339 23.3901 1.13289L23.3899 1.12609C23.3899 1.12477 23.3881 1.12437 23.3875 1.12554Z" fill="#DCD8FF"/>
<path d="M8.03592 1.5331C8.03549 1.53394 8.0343 1.53395 8.03385 1.53312C8.03327 1.53203 8.03161 1.53246 8.03164 1.5337L8.03183 1.54059C8.03184 1.54106 8.03174 1.54152 8.03152 1.54194L4.23019 9.02418C1.85467 13.6998 2.00234 19.2594 4.62251 23.8025L8.81547 31.0725C8.8157 31.0729 8.81583 31.0734 8.81584 31.0738L8.81603 31.0807C8.81606 31.082 8.81774 31.0823 8.81826 31.0812C8.81866 31.0803 8.81986 31.0803 8.82033 31.0811L8.82042 31.0812C8.82107 31.0824 8.8228 31.0819 8.82276 31.0806L8.82258 31.0737C8.82257 31.0732 8.82268 31.0727 8.8229 31.0723L12.6242 23.5901C14.9997 18.9144 14.8521 13.3548 12.2319 8.81176L8.03896 1.54179C8.03871 1.54135 8.03857 1.54086 8.03856 1.54036L8.03838 1.53349C8.03834 1.53219 8.03659 1.53179 8.036 1.53295L8.03592 1.5331Z" fill="#7539FF"/>
<path d="M12.1197 23.9455C10.4835 27.166 12.8847 30.9652 16.4958 30.8694C20.1068 30.7735 22.3031 26.8523 20.4984 23.7231C18.6076 20.4447 13.8339 20.5713 12.1197 23.9455Z" fill="#B8B1FF"/>
<path d="M11.7087 8.48376C9.90394 5.35459 12.1002 1.43336 15.7112 1.33749C19.3222 1.24163 21.7234 5.04076 20.0873 8.26127C18.3731 11.6354 13.5995 11.7621 11.7087 8.48376Z" fill="#B8B1FF"/>
</svg>
