<svg width="26" height="26" viewBox="0 0 26 26" fill="none" xmlns="http://www.w3.org/2000/svg">
<path d="M13 0C9.55219 -4.11148e-08 6.24559 1.36964 3.80761 3.80761C1.36964 6.24558 3.01418e-07 9.55218 0 13C-3.01417e-07 16.4478 1.36964 19.7544 3.80761 22.1924C6.24558 24.6304 9.55218 26 13 26L13 13L13 0Z" fill="#7539FF"/>
<path d="M13 26C16.4478 26 19.7544 24.6304 22.1924 22.1924C24.6304 19.7544 26 16.4478 26 13C26 9.55219 24.6304 6.24559 22.1924 3.80761C19.7544 1.36964 16.4478 1.07227e-06 13 7.70853e-07L13 13L13 26Z" fill="#B8B1FF"/>
</svg>
