<svg width="30" height="32" viewBox="0 0 30 32" fill="none" xmlns="http://www.w3.org/2000/svg">
<path d="M29.7269 23.3935L29.7334 23.39H29.7208L22.3414 19.3914L14.9498 15.3857L7.55792 19.3914L0.178573 23.39H0.166016L0.17244 23.3935L0.166016 23.397H0.178573L7.55792 27.3956L14.9498 31.4012L22.3414 27.3956L29.7208 23.397H29.7334L29.7269 23.3935Z" fill="#DCD8FF"/>
<path d="M29.7269 8.03558L29.7334 8.03236H29.7208L22.3414 4.03346L14.9498 0.027832L7.55792 4.03346L0.178573 8.03236H0.166016L0.17244 8.03558L0.166016 8.03909H0.178573L7.55792 12.038L14.9498 16.0436L22.3414 12.038L29.7208 8.03909H29.7334L29.7269 8.03558Z" fill="#7539FF"/>
<path d="M0.177734 7.71021V23.719L14.949 15.7147L0.177734 7.71021Z" fill="#B8B1FF"/>
<path d="M29.7202 7.71021V23.719L14.9492 15.7147L29.7202 7.71021Z" fill="#B8B1FF"/>
</svg>
