<svg width="20" height="20" viewBox="0 0 20 20" fill="none" xmlns="http://www.w3.org/2000/svg">
<path d="M18.333 5.00008V7.01675C18.333 8.33341 17.4997 9.16675 16.183 9.16675H13.333V3.34175C13.333 2.41675 14.0913 1.66675 15.0163 1.66675C15.9247 1.67508 16.758 2.04175 17.358 2.64175C17.958 3.25008 18.333 4.08341 18.333 5.00008Z" stroke="#2DA7FF" stroke-width="1.5" stroke-miterlimit="10" stroke-linecap="round" stroke-linejoin="round"/>
<path d="M1.66699 5.83341V17.5001C1.66699 18.1917 2.45033 18.5834 3.00033 18.1668L4.42533 17.1001C4.75866 16.8501 5.22533 16.8834 5.52533 17.1834L6.90866 18.5751C7.23366 18.9001 7.76699 18.9001 8.09199 18.5751L9.49199 17.1751C9.78366 16.8834 10.2503 16.8501 10.5753 17.1001L12.0003 18.1668C12.5503 18.5751 13.3337 18.1834 13.3337 17.5001V3.33341C13.3337 2.41675 14.0837 1.66675 15.0003 1.66675H5.83366H5.00033C2.50033 1.66675 1.66699 3.15841 1.66699 5.00008V5.83341Z" stroke="#2DA7FF" stroke-width="1.5" stroke-miterlimit="10" stroke-linecap="round" stroke-linejoin="round"/>
<path d="M7.5 10.8416H10" stroke="#2DA7FF" stroke-width="1.5" stroke-linecap="round" stroke-linejoin="round"/>
<path d="M7.5 7.5083H10" stroke="#2DA7FF" stroke-width="1.5" stroke-linecap="round" stroke-linejoin="round"/>
<path d="M4.99609 10.8333H5.00358" stroke="#2DA7FF" stroke-width="2" stroke-linecap="round" stroke-linejoin="round"/>
<path d="M4.99609 7.5H5.00358" stroke="#2DA7FF" stroke-width="2" stroke-linecap="round" stroke-linejoin="round"/>
</svg>
